<?xml version="1.0" standalone="no"?>
<!DOCTYPE svg PUBLIC "-//W3C//DTD SVG 20010904//EN"
 "http://www.w3.org/TR/2001/REC-SVG-20010904/DTD/svg10.dtd">
<svg version="1.0" xmlns="http://www.w3.org/2000/svg"
 width="504.000000pt" height="99.000000pt" viewBox="0 0 504.000000 99.000000"
 preserveAspectRatio="xMidYMid meet">

<g transform="translate(0.000000,99.000000) scale(0.100000,-0.100000)"
fill="#000000" stroke="none">
<path d="M30 495 l0 -465 90 0 90 0 2 187 3 187 145 -187 145 -186 123 -1 123
0 -20 29 c-11 15 -86 106 -166 202 l-146 173 104 106 c117 118 201 208 205
218 1 4 -52 6 -118 4 l-120 -3 -57 -62 c-132 -141 -207 -217 -215 -217 -4 0
-8 108 -8 240 l0 240 -90 0 -90 0 0 -465z"/>
<path d="M2170 820 c0 -77 -2 -140 -4 -140 -3 0 -18 12 -33 26 -61 56 -99 69
-213 69 -91 0 -112 -3 -155 -24 -145 -72 -223 -242 -195 -423 20 -134 88 -231
200 -286 47 -23 67 -27 145 -27 111 0 155 15 217 73 l48 45 0 -52 0 -51 85 0
85 0 0 465 0 465 -90 0 -90 0 0 -140z m-88 -245 c121 -86 121 -259 1 -351
-137 -104 -332 -2 -333 173 0 64 10 91 51 137 51 59 93 77 171 73 56 -2 74 -8
110 -32z"/>
<path d="M2470 495 l0 -465 90 0 90 0 0 465 0 465 -90 0 -90 0 0 -465z"/>
<path d="M4830 820 c0 -77 -2 -140 -5 -140 -3 0 -18 11 -33 25 -58 54 -108 70
-222 70 -94 0 -110 -3 -156 -27 -163 -86 -237 -315 -164 -510 42 -112 116
-182 229 -215 109 -31 259 3 321 73 16 19 32 34 35 34 3 0 5 -22 5 -50 l0 -50
85 0 85 0 0 465 0 465 -90 0 -90 0 0 -140z m-133 -221 c73 -27 133 -118 133
-200 0 -184 -211 -285 -346 -167 -68 60 -93 143 -69 226 17 57 67 115 119 138
37 16 124 18 163 3z"/>
<path d="M965 766 c-189 -60 -297 -234 -266 -432 20 -133 92 -227 219 -287 62
-30 74 -32 172 -31 141 1 201 24 286 108 69 69 99 135 110 239 15 146 -68 311
-187 372 -84 44 -247 59 -334 31z m208 -170 c42 -18 96 -73 115 -116 67 -159
-87 -337 -252 -290 -57 16 -114 63 -137 114 -22 49 -25 134 -5 179 17 40 66
89 108 110 41 20 128 22 171 3z"/>
<path d="M2956 769 c-46 -11 -149 -64 -170 -88 -14 -16 -11 -21 33 -65 l48
-48 59 34 c52 29 67 33 134 33 60 0 82 -4 111 -22 38 -24 59 -59 59 -98 0 -25
-1 -25 -89 -25 -94 0 -215 -19 -272 -43 -89 -37 -138 -112 -139 -210 0 -73 17
-113 68 -159 105 -95 309 -87 404 14 l28 30 0 -46 0 -46 86 0 86 0 -4 273 c-3
258 -5 275 -26 322 -28 61 -64 100 -117 128 -33 17 -60 22 -150 24 -60 1 -127
-2 -149 -8z m262 -464 c-8 -96 -65 -147 -167 -148 -70 0 -121 25 -136 67 -27
77 76 130 259 135 l48 1 -4 -55z"/>
<path d="M3764 761 c-22 -10 -57 -38 -77 -62 l-37 -44 0 55 0 55 -85 0 -85 0
0 -367 0 -368 89 0 90 0 3 233 c3 213 5 235 24 267 29 50 78 80 130 80 58 0
90 -16 117 -59 21 -34 22 -48 25 -279 l3 -242 90 0 89 0 0 274 c0 295 -4 325
-55 392 -13 17 -48 44 -77 58 -66 33 -179 36 -244 7z"/>
</g>
</svg>
